<svg width="64" height="64" fill="none" xmlns="http://www.w3.org/2000/svg"><path d="M10.712 47.576a4.001 4.001 0 011.148 3.204 43.88 43.88 0 01-1.592 8c5.58-1.292 8.988-2.788 10.536-3.572a4 4 0 012.84-.296A32.237 32.237 0 0032 56c15.984 0 28-11.228 28-24C60 19.232 47.984 8 32 8S4 19.232 4 32c0 5.872 2.468 11.32 6.712 15.576zM8.74 63.196c-.948.188-1.899.36-2.852.516-.8.128-1.408-.704-1.092-1.448.355-.838.68-1.688.976-2.548l.012-.04c.992-2.88 1.8-6.192 2.096-9.276C2.972 45.48 0 39.04 0 32 0 16.536 14.328 4 32 4s32 12.536 32 28-14.328 28-32 28a36.237 36.237 0 01-9.388-1.224c-2.08 1.052-6.556 2.968-13.872 4.42z" fill="#000"/><path d="M28.264 27.04A6.66 6.66 0 0016 30.672a6.668 6.668 0 0010.244 5.624c-.524 1.556-1.5 3.216-3.108 4.88a1.669 1.669 0 102.4 2.32c5.944-6.16 5.172-12.856 2.728-16.448v-.008zm16 0A6.66 6.66 0 0032 30.672a6.668 6.668 0 0010.244 5.624c-.524 1.556-1.5 3.216-3.108 4.88a1.672 1.672 0 00.04 2.36 1.667 1.667 0 002.36-.04c5.944-6.16 5.172-12.856 2.728-16.448v-.008z" fill="#000"/></svg>